<svg width="204" height="30" viewBox="0 0 204 30" fill="none" xmlns="http://www.w3.org/2000/svg">
<path d="M17.9466 27.9855C18.0283 28.4483 17.7559 28.9111 17.293 29.0472C16.9934 29.1289 16.6394 29.1833 16.2854 29.1833H6.37253C2.39651 29.1833 0 25.7532 0 21.8875V0.952813C0 0.435572 0.435729 0 0.953156 0H4.52068C5.03811 0 5.47384 0.435572 5.47384 0.952813V21.8875C5.47384 23.3303 6.53593 24.4737 8.03374 24.4737H16.5849C17.0479 24.4737 17.4564 24.8004 17.5381 25.2632L17.9466 27.9855ZM36.9008 13.0944V27.0327C36.9008 27.4682 34.1502 29.1833 28.05 29.1833C23.2298 29.1833 18.7908 27.9038 18.7908 22.1869C18.7908 16.9056 23.2842 14.9456 26.4433 14.9456H32.1894V13.9655C32.1894 12.3866 31.4542 10.5898 27.8866 10.5898C25.2995 10.5898 23.257 11.2704 22.086 11.6788C21.8681 11.7604 21.623 11.6243 21.5686 11.4065L20.6154 8.35753C20.5609 8.13974 20.6699 7.92196 20.8605 7.84029C22.0043 7.43194 24.5097 6.58802 28.6764 6.58802C35.0761 6.58802 36.9008 10.0181 36.9008 13.0944ZM28.3496 25.2632C30.4738 25.2632 31.8082 24.7731 32.1894 24.5554V18.7024H26.9879C25.1906 18.7024 23.6655 20.1724 23.6655 22.1869C23.6655 24.2015 25.0272 25.2632 28.3496 25.2632ZM38.916 27.3049C41.3125 28.3938 44.0086 29.1561 47.1404 29.1561C51.2798 29.1561 55.392 27.2505 55.392 23.3031C55.392 19.029 52.6959 17.559 47.8757 15.8984C45.0979 14.9456 44.172 14.2105 44.172 13.0399C44.172 12.0054 44.88 10.9165 47.3855 10.9165C50.1088 10.9165 51.7428 11.5154 52.5598 11.8693C52.7776 11.951 52.9955 11.8693 53.1044 11.6515L54.1937 8.95644C54.2754 8.76588 54.1937 8.52087 53.9759 8.4392C52.7776 7.89474 50.4083 7.10526 47.1131 7.10526C41.9389 7.10526 39.27 10.3176 39.27 13.0127C39.27 17.0962 42.9193 18.5118 46.2145 19.6824C49.9998 21.0163 50.6262 21.833 50.6262 23.167C50.6262 24.5554 48.8016 25.3721 47.1131 25.3721C44.0358 25.3721 41.5576 24.3376 40.4138 23.8203C40.196 23.7387 39.9509 23.8203 39.8692 24.0381L38.7254 26.8149C38.6164 26.9782 38.6981 27.2232 38.916 27.3049ZM70.5336 25.0181C70.5063 24.8004 70.2612 24.637 70.0434 24.6915C69.3898 24.8276 68.1915 25.0998 66.9933 25.0998C64.4334 25.0998 64.2972 23.902 64.2972 23.2214V11.8966H68.6272C68.8451 11.8966 69.0357 11.706 69.0357 11.4882V8.57532C69.0357 8.35753 68.8451 8.16697 68.6272 8.16697H64.2972V2.80399C64.2972 2.53176 64.0521 2.3412 63.7798 2.42287L59.9944 3.43013C59.8037 3.48457 59.6948 3.64791 59.6948 3.81125V8.16697H57.38C57.2166 8.16697 57.0532 8.27586 56.9987 8.41198L55.8005 11.3249C55.6915 11.5971 55.8822 11.8966 56.1817 11.8966H59.6948V23.2214C59.6948 26.7604 60.4573 29.1833 66.0129 29.1833C68.5183 29.1833 70.1251 28.6933 70.7786 28.4483C70.9693 28.3938 71.0782 28.2033 71.051 27.9855L70.5336 25.0181Z" fill="black"/>
<path d="M102.369 7.10526C99.8635 7.10526 97.9844 7.75862 97.1947 8.03085C97.004 8.11252 96.8951 8.30308 96.9496 8.52087L97.6849 11.4338C97.7393 11.6515 97.9844 11.7877 98.2023 11.7332C99.101 11.461 99.8635 11.1615 101.743 11.1615C105.038 11.1615 105.528 13.0399 105.528 14.4828V15.4628H99.7001C96.6773 15.4628 92.1566 17.5318 92.1566 22.7586C92.1566 28.3938 96.7045 29.5372 101.307 29.5372C107.407 29.5372 110.158 27.8221 110.158 27.3866V13.7205C110.158 11.1343 108.741 7.10526 102.369 7.10526ZM105.528 24.9365C105.147 25.1543 103.731 25.6443 101.606 25.6443C98.284 25.6443 96.9224 24.5826 96.9224 22.5681C96.9224 20.5808 98.4746 19.0835 100.245 19.0835H105.528V24.9365ZM112.091 27.1688L113.235 24.392C113.317 24.1742 113.562 24.0926 113.78 24.1742C114.923 24.6915 117.429 25.7259 120.479 25.7259C122.167 25.7259 123.992 24.9093 123.992 23.5209C123.992 22.1869 123.393 21.3702 119.58 20.0363C116.285 18.8657 112.636 17.4501 112.636 13.3666C112.636 10.6715 115.305 7.45916 120.479 7.45916C123.774 7.45916 126.143 8.27586 127.342 8.7931C127.532 8.87477 127.641 9.11978 127.56 9.31034L126.47 12.0054C126.388 12.2232 126.143 12.3049 125.926 12.2232C125.109 11.8693 123.447 11.2704 120.751 11.2704C118.273 11.2704 117.538 12.3866 117.538 13.3938C117.538 14.5644 118.491 15.2995 121.241 16.2523C126.062 17.9401 128.758 19.4102 128.758 23.657C128.758 27.6044 124.618 29.51 120.506 29.51C117.374 29.51 114.678 28.7477 112.282 27.6588C112.091 27.6044 112.009 27.3593 112.091 27.1688ZM130.337 27.1688L131.481 24.392C131.563 24.1742 131.808 24.0926 132.026 24.1742C133.17 24.6915 135.675 25.7259 138.725 25.7259C140.414 25.7259 142.238 24.9093 142.238 23.5209C142.238 22.1869 141.639 21.3702 137.826 20.0363C134.531 18.8657 130.882 17.4501 130.882 13.3666C130.882 10.6715 133.551 7.45916 138.725 7.45916C142.02 7.45916 144.39 8.27586 145.588 8.7931C145.778 8.87477 145.887 9.11978 145.806 9.31034L144.716 12.0054C144.635 12.2232 144.39 12.3049 144.172 12.2232C143.355 11.8693 141.693 11.2704 138.997 11.2704C136.519 11.2704 135.784 12.3866 135.784 13.3938C135.784 14.5644 136.737 15.2995 139.488 16.2523C144.308 17.9401 147.004 19.4102 147.004 23.657C147.004 27.6044 142.864 29.51 138.752 29.51C135.62 29.51 132.924 28.7477 130.528 27.6588C130.337 27.6044 130.256 27.3593 130.337 27.1688ZM85.7568 0.626129H76.6882C75.7895 0.626129 75.0542 1.36116 75.0542 2.25952V28.6116C75.0542 29.1289 75.49 29.5644 76.0074 29.5644H79.1119C79.6294 29.5644 80.0651 29.1289 80.0651 28.6116V19.3557H85.5662C91.857 19.3557 95.0433 14.7005 95.0433 10.0454C95.0433 4.32849 90.6588 0.626129 85.7568 0.626129ZM85.8657 15.0272H80.2013V5.41742H85.6479C89.2971 5.41742 90.5771 8.38475 90.5771 10.3176C90.5771 13.3122 88.589 15.0272 85.8657 15.0272ZM163.153 18.539C163.153 21.0436 161.138 23.0581 158.632 23.0581C156.127 23.0581 154.112 21.0436 154.112 18.539C154.112 16.0345 156.127 14.02 158.632 14.02C161.138 14.02 163.153 16.0345 163.153 18.539ZM173.665 14.02C171.16 14.02 169.144 16.0345 169.144 18.539C169.144 21.0436 171.16 23.0581 173.665 23.0581C176.17 23.0581 178.186 21.0436 178.186 18.539C178.186 16.0345 176.17 14.02 173.665 14.02ZM188.698 14.02C186.192 14.02 184.177 16.0345 184.177 18.539C184.177 21.0436 186.192 23.0581 188.698 23.0581C191.203 23.0581 193.218 21.0436 193.218 18.539C193.218 16.0345 191.176 14.02 188.698 14.02ZM202.124 5.98911C201.361 5.98911 200.735 6.61524 200.735 7.37749V28.6116C200.735 29.3739 201.361 30 202.124 30C202.886 30 203.512 29.3739 203.512 28.6116V7.37749C203.512 6.58802 202.886 5.98911 202.124 5.98911Z" fill="#D32D27"/>
</svg>
