<svg width="118" height="49" viewBox="0 0 118 49" fill="none" xmlns="http://www.w3.org/2000/svg">
<path fill-rule="evenodd" clip-rule="evenodd" d="M117.932 25.2025C117.932 16.8654 113.87 10.285 106.104 10.285C98.3093 10.285 93.5897 16.864 93.5897 25.1359C93.5897 34.9392 99.1586 39.8891 107.151 39.8891C111.05 39.8891 113.999 39.0107 116.226 37.7726V31.2587C113.999 32.3666 111.444 33.0494 108.2 33.0494C105.022 33.0494 102.205 31.9416 101.845 28.0996H117.862C117.862 27.6746 117.927 25.9831 117.927 25.2011L117.932 25.2025ZM101.762 22.1099C101.762 18.4294 104.022 16.8994 106.087 16.8994C108.085 16.8994 110.215 18.4294 110.215 22.1099H101.762ZM80.9614 10.2878C77.7508 10.2878 75.6889 11.7853 74.5403 12.8279L74.1128 10.8092H66.8923V48.7829L75.0818 47.0574L75.1146 37.8406C76.2945 38.6877 78.0301 39.8919 80.9143 39.8919C86.7782 39.8919 92.1177 35.2169 92.1177 24.8781C92.0849 15.4332 86.6799 10.2864 80.9457 10.2864L80.9614 10.2878ZM78.9949 32.7278C77.0626 32.7278 75.9169 32.0436 75.1288 31.1978L75.0961 19.1137C75.9482 18.1688 77.1267 17.5185 78.9949 17.5185C81.976 17.5185 84.0394 20.8406 84.0394 25.1062C84.0394 29.4695 82.0087 32.7278 78.9949 32.7278ZM55.6249 8.36683L63.8471 6.61017V0L55.6249 1.7255V8.36683ZM55.6249 10.8417H63.8471V39.338H55.6249V10.8417ZM46.8112 13.2501L46.2869 10.8417H39.2103V39.3408H47.3998V20.026C49.3321 17.5185 52.6081 17.9747 53.6242 18.3331V10.8432C52.5754 10.4522 48.7435 9.73533 46.8098 13.2515L46.8112 13.2501ZM30.4323 3.75842L22.4395 5.45417L22.4067 31.5407C22.4067 36.3602 26.0433 39.9103 30.8911 39.9103C33.5773 39.9103 35.5423 39.4216 36.6239 38.8337V32.2221C35.5751 32.6471 30.3995 34.1431 30.3995 29.3236V17.7792H36.6239V10.8417H30.3967L30.4323 3.75842ZM8.2878 19.0981C8.2878 17.8273 9.3366 17.3414 11.0723 17.3414C13.9054 17.4014 16.6858 18.1143 19.1947 19.4239V11.7867C16.4758 10.71 13.7897 10.2893 11.0723 10.2893C4.42178 10.2893 0 13.7417 0 19.5061C0 28.4948 12.4488 27.0612 12.4488 30.9386C12.4488 32.436 11.1378 32.9247 9.30382 32.9247C6.58492 32.9247 3.1122 31.8169 0.360525 30.3181V38.0672C3.40718 39.3706 6.48802 39.9089 9.30382 39.9089C16.1182 39.9089 20.8036 36.5543 20.8036 30.7247C20.7708 21.0205 8.2878 22.746 8.2878 19.0981Z" fill="#6772E5"/>
</svg>
