<svg width="136" height="52" viewBox="0 0 136 52" fill="none" xmlns="http://www.w3.org/2000/svg">
<path d="M21.1269 12.1861L10.5626 6.09303L0 12.1861V6.09303L10.5643 0L21.1286 6.09303V12.1861H21.1269Z" fill="#A435F0"/>
<path d="M5.53458 17.3018V30.7315C5.53458 34.2014 8.12849 35.893 10.5643 35.893C13.0205 35.893 15.5957 34.1573 15.5957 30.6857V17.3018H21.1286V31.0522C21.1286 34.2489 20.1223 36.7143 18.1115 38.4059C16.0972 40.0959 13.5832 40.9188 10.5167 40.9188C7.45366 40.9188 4.93794 40.0976 2.97297 38.4059C1.00629 36.716 0 34.3422 0 31.1879V17.3018H5.53458ZM68.9697 33.9927L73.0799 36.363C70.5727 39.217 67.2291 40.873 63.0272 40.873C59.4134 40.873 56.4404 39.7769 54.2001 37.6305C51.9597 35.4824 50.8175 32.603 50.8175 28.9941V28.8142C50.8175 25.1577 51.9597 22.2342 54.2001 19.9962C56.488 17.7582 59.3709 16.6621 62.8912 16.6621C66.2313 16.6621 68.9731 17.7582 71.0758 19.9962C73.2261 22.2342 74.2782 24.9761 74.2782 28.2661C74.2782 29.3266 74.1576 30.455 74.1576 30.455H56.279C56.5798 33.9537 59.2417 36.2137 63.2108 36.2137C65.3865 36.2137 67.2954 35.4824 68.9697 33.9927ZM58.4547 22.7839C57.2751 23.7002 56.5968 24.8268 56.4201 26.1639H68.6927C68.6417 24.871 68.0518 23.746 66.9606 22.8298C65.8149 21.8236 64.489 21.3214 62.8895 21.3214C61.1982 21.3214 59.6871 21.8236 58.453 22.7823L58.4547 22.7839ZM124.674 43.9763C122.43 49.2719 120.081 51.0722 116.479 51.0722H113.982V46.1719H116.002C117.241 46.1719 118.392 45.707 119.49 43.1772L120.588 40.6439L111.12 17.3018H116.746L123.469 34.1131L130.375 17.3018H136L124.676 43.9763H124.674ZM42.672 8.48714H48.1607V40.3249H42.672V38.2057C41.4209 39.3578 39.0531 40.8272 35.3084 40.8272C32.0635 40.8272 29.3183 39.6853 27.078 37.3997C24.8818 35.0701 23.7854 32.2382 23.7854 28.8108C23.7854 25.3851 24.8818 22.5532 27.078 20.2677C29.3183 17.9397 32.0618 16.7978 35.3084 16.7978C38.0366 16.7978 40.8583 17.7633 42.672 19.3871V8.48714ZM43.0851 28.8142C43.0851 26.8019 42.3966 25.1119 41.0249 23.7884C39.699 22.4633 38.0077 21.7778 36.0393 21.7778C34.0727 21.7778 32.4731 22.4633 31.1473 23.7884C29.8673 25.1119 29.2265 26.8019 29.2265 28.8142C29.2265 30.8231 29.869 32.5131 31.1473 33.8383C32.4731 35.1634 34.0727 35.8489 36.0393 35.8489C38.0077 35.8489 39.699 35.1634 41.0249 33.8383C42.3966 32.5131 43.0851 30.8231 43.0851 28.8142ZM102.589 16.847C107.362 16.847 110.593 20.0692 110.593 26.0723V40.3249H105.104V26.8477C105.104 23.6968 103.595 21.732 100.987 21.732C98.2897 21.732 96.4165 23.9259 96.4165 27.0767V40.3266H90.9738V26.8511C90.9738 23.6985 89.466 21.7337 86.8568 21.7337C84.2986 21.7337 82.3761 23.9717 82.3761 27.0784V40.3266H76.935V17.3051H82.3761V19.6993C83.3467 18.5115 85.293 16.8453 88.5957 16.8453C92.5019 16.8453 94.1745 19.1054 94.7677 20.2371C96.2534 18.5726 98.4189 16.8453 102.589 16.8453V16.847Z" fill="black"/>
</svg>
